<mxfile host="app.diagrams.net" agent="Mozilla/5.0 (Macintosh; Intel Mac OS X 10_15_7) AppleWebKit/537.36 (KHTML, like Gecko) Chrome/131.0.0.0 Safari/537.36" version="26.0.16">
  <diagram id="prtHgNgQTEPvFCAcTncT" name="Page-1">
    <mxGraphModel dx="1828" dy="1035" grid="1" gridSize="10" guides="1" tooltips="1" connect="1" arrows="1" fold="1" page="1" pageScale="1" pageWidth="1600" pageHeight="900" math="0" shadow="0">
      <root>
        <mxCell id="0" />
        <mxCell id="1" parent="0" />
        <mxCell id="bwIyDAjfrBIn9_o2AdS--7" style="edgeStyle=orthogonalEdgeStyle;rounded=0;orthogonalLoop=1;jettySize=auto;html=1;strokeColor=light-dark(#000000,#FFB570);" edge="1" parent="1" target="bwIyDAjfrBIn9_o2AdS--6">
          <mxGeometry relative="1" as="geometry">
            <mxPoint x="768" y="490" as="sourcePoint" />
            <Array as="points">
              <mxPoint x="768" y="520" />
              <mxPoint x="835" y="520" />
              <mxPoint x="835" y="660" />
            </Array>
          </mxGeometry>
        </mxCell>
        <mxCell id="bwIyDAjfrBIn9_o2AdS--13" style="edgeStyle=orthogonalEdgeStyle;rounded=0;orthogonalLoop=1;jettySize=auto;html=1;strokeColor=light-dark(#000000,#67AB9F);" edge="1" parent="1" source="bwIyDAjfrBIn9_o2AdS--3" target="bwIyDAjfrBIn9_o2AdS--4">
          <mxGeometry relative="1" as="geometry">
            <Array as="points">
              <mxPoint x="915" y="540" />
            </Array>
          </mxGeometry>
        </mxCell>
        <mxCell id="bwIyDAjfrBIn9_o2AdS--14" style="edgeStyle=orthogonalEdgeStyle;rounded=0;orthogonalLoop=1;jettySize=auto;html=1;" edge="1" parent="1" source="bwIyDAjfrBIn9_o2AdS--3" target="bwIyDAjfrBIn9_o2AdS--5">
          <mxGeometry relative="1" as="geometry">
            <Array as="points">
              <mxPoint x="1055" y="590" />
            </Array>
          </mxGeometry>
        </mxCell>
        <mxCell id="bwIyDAjfrBIn9_o2AdS--15" style="edgeStyle=orthogonalEdgeStyle;rounded=0;orthogonalLoop=1;jettySize=auto;html=1;strokeColor=light-dark(#000000,#FF0080);" edge="1" parent="1" source="bwIyDAjfrBIn9_o2AdS--3" target="bwIyDAjfrBIn9_o2AdS--5">
          <mxGeometry relative="1" as="geometry">
            <Array as="points">
              <mxPoint x="1190" y="580" />
            </Array>
          </mxGeometry>
        </mxCell>
        <mxCell id="bwIyDAjfrBIn9_o2AdS--3" value="&lt;font style=&quot;font-size: 24px;&quot;&gt;Customer (&lt;u&gt;LoginID&lt;/u&gt;, CusName, Sex, Bday, Age, FoodReviewID, likedResID, likedFoodID, FavFoodID)&lt;/font&gt;" style="text;html=1;align=center;verticalAlign=middle;resizable=0;points=[];autosize=1;strokeColor=none;fillColor=none;" vertex="1" parent="1">
          <mxGeometry x="155" y="450" width="1100" height="40" as="geometry" />
        </mxCell>
        <mxCell id="bwIyDAjfrBIn9_o2AdS--4" value="&lt;span style=&quot;font-size: 24px;&quot;&gt;Restaurant (&lt;u&gt;ResName&lt;/u&gt;, Address)&lt;/span&gt;" style="text;html=1;align=center;verticalAlign=middle;resizable=0;points=[];autosize=1;strokeColor=none;fillColor=none;" vertex="1" parent="1">
          <mxGeometry x="155" y="510" width="370" height="40" as="geometry" />
        </mxCell>
        <mxCell id="bwIyDAjfrBIn9_o2AdS--5" value="&lt;span style=&quot;font-size: 24px;&quot;&gt;FoodItem (&lt;u&gt;FoodName&lt;/u&gt;, Description, IsVegan)&lt;/span&gt;" style="text;html=1;align=center;verticalAlign=middle;resizable=0;points=[];autosize=1;strokeColor=none;fillColor=none;" vertex="1" parent="1">
          <mxGeometry x="155" y="570" width="500" height="40" as="geometry" />
        </mxCell>
        <mxCell id="bwIyDAjfrBIn9_o2AdS--9" style="edgeStyle=orthogonalEdgeStyle;rounded=0;orthogonalLoop=1;jettySize=auto;html=1;" edge="1" parent="1" source="bwIyDAjfrBIn9_o2AdS--6" target="bwIyDAjfrBIn9_o2AdS--3">
          <mxGeometry relative="1" as="geometry">
            <Array as="points">
              <mxPoint x="575" y="620" />
              <mxPoint x="1270" y="620" />
              <mxPoint x="1270" y="470" />
            </Array>
          </mxGeometry>
        </mxCell>
        <mxCell id="bwIyDAjfrBIn9_o2AdS--10" style="edgeStyle=orthogonalEdgeStyle;rounded=0;orthogonalLoop=1;jettySize=auto;html=1;strokeColor=light-dark(#000000,#CC00CC);" edge="1" parent="1" source="bwIyDAjfrBIn9_o2AdS--6" target="bwIyDAjfrBIn9_o2AdS--4">
          <mxGeometry relative="1" as="geometry">
            <Array as="points">
              <mxPoint x="725" y="530" />
            </Array>
          </mxGeometry>
        </mxCell>
        <mxCell id="bwIyDAjfrBIn9_o2AdS--6" value="&lt;span style=&quot;font-size: 24px;&quot;&gt;Review (&lt;u&gt;ReviewID&lt;/u&gt;, Date, Rate, CustomerID, RestaurantID)&lt;/span&gt;" style="text;html=1;align=center;verticalAlign=middle;resizable=0;points=[];autosize=1;strokeColor=none;fillColor=none;" vertex="1" parent="1">
          <mxGeometry x="155" y="640" width="650" height="40" as="geometry" />
        </mxCell>
      </root>
    </mxGraphModel>
  </diagram>
</mxfile>
